<svg xmlns="http://www.w3.org/2000/svg" width="26.317" height="34.736" viewBox="0 0 26.317 34.736">
  <g id="noun-diploma-79710" transform="translate(-13.678 -3.657)">
    <path id="Path_8" data-name="Path 8" d="M38.851,3.657H14.823A1.145,1.145,0,0,0,13.678,4.8V36.142a1.144,1.144,0,0,0,1.145,1.144h14l.6-3.666a4.254,4.254,0,0,1-1.076-2.812,4.294,4.294,0,1,1,7.513,2.812l.6,3.666h2.391A1.143,1.143,0,0,0,40,36.142V4.8A1.145,1.145,0,0,0,38.851,3.657ZM23.865,31.081H19.543v-.967h4.322v.967Zm2.59-1.964H19.543V27.186h6.912v1.931Zm7.676-5.626H19.543V21.558H34.131v1.933Zm0-3.2H19.543V18.353H34.131v1.932Zm0-3H19.543V15.357H34.131v1.932Zm0-3H19.543V12.36H34.131v1.931Zm0-3H19.543V9.362H34.131v1.932Z" fill="#fff"/>
    <path id="Path_9" data-name="Path 9" d="M54.685,76.953a4.034,4.034,0,0,1-2.3-.717l-.7,4.246,2.992-1.717,2.989,1.717-.695-4.246A4.034,4.034,0,0,1,54.685,76.953Z" transform="translate(-22.045 -42.089)" fill="#fff"/>
    <path id="Path_10" data-name="Path 10" d="M57.561,63.735a3.3,3.3,0,1,0-3.3,3.3A3.3,3.3,0,0,0,57.561,63.735Zm-5.471,0a2.175,2.175,0,1,1,2.176,2.175A2.177,2.177,0,0,1,52.09,63.735Z" transform="translate(-21.625 -32.928)" fill="#fff"/>
  </g>
</svg>
