<svg id="noun-newspaper-2992757" xmlns="http://www.w3.org/2000/svg" width="40.512" height="27.491"
  viewBox="0 0 40.512 27.491">
  <path id="Path_7" data-name="Path 7"
    d="M42.59,24.509a3.662,3.662,0,0,0-4.038,3.629V38.527a1.134,1.134,0,0,0,2.268,0V28.183a1.365,1.365,0,0,1,1.361-1.361,1.337,1.337,0,0,1,1.361,1.361V41.294a3.64,3.64,0,0,1-3.629,3.629h-.907a3.611,3.611,0,0,1-3.629-3.629V20.834A1.123,1.123,0,0,0,34.243,19.7H6.434A1.123,1.123,0,0,0,5.3,20.834V42.428a4.763,4.763,0,0,0,4.763,4.763h29.85a5.886,5.886,0,0,0,5.9-5.9V28.319A3.713,3.713,0,0,0,42.59,24.509ZM9.564,25.6a.407.407,0,0,1,.408-.408h5.353a.407.407,0,0,1,.408.408v5.353a.407.407,0,0,1-.408.408h-5.4a.407.407,0,0,1-.408-.408V25.6ZM31.476,40.749a.293.293,0,0,1-.272.272H9.837a.293.293,0,0,1-.272-.272V39.434a.293.293,0,0,1,.272-.272H31.2a.293.293,0,0,1,.272.272Zm0-4.809a.293.293,0,0,1-.272.272H9.837a.293.293,0,0,1-.272-.272V34.625a.293.293,0,0,1,.272-.272H31.2a.293.293,0,0,1,.272.272Zm0-4.854a.293.293,0,0,1-.272.272H18.864a.293.293,0,0,1-.272-.272v-1.27a.293.293,0,0,1,.272-.272H31.2a.293.293,0,0,1,.272.272Z"
    transform="translate(-5.3 -19.7)" fill="#fff" />
</svg>
