<svg xmlns="http://www.w3.org/2000/svg" width="37.264" height="34.735" viewBox="0 0 37.264 34.735">
  <g id="noun-insurance-policy-7015739" transform="translate(-10 -12.714)">
    <g id="Group_3624" data-name="Group 3624" transform="translate(10 12.714)">
      <path id="Path_11" data-name="Path 11"
        d="M32.852,77.121v-1.7H10a5.724,5.724,0,0,0,5.71,5.528h19a4.866,4.866,0,0,1-1.86-3.825Z"
        transform="translate(-10 -46.211)" fill="#fff" />
      <path id="Path_12" data-name="Path 12"
        d="M82.327,12.715A2.343,2.343,0,0,0,80,15.048v2.784h4.66V15.048a2.335,2.335,0,0,0-2.329-2.333Z"
        transform="translate(-47.392 -12.715)" fill="#fff" />
      <path id="Path_13" data-name="Path 13"
        d="M43.435,36.418c3.856-2.362,5.626-5.832,5.391-10.573a8.848,8.848,0,0,1-5.391-1.985,8.859,8.859,0,0,1-5.395,1.985C37.809,30.586,39.579,34.056,43.435,36.418Zm-3.4-6.758h0a.527.527,0,0,1,.733-.073l1.98,1.625L46.061,27.9v0a.523.523,0,0,1,.739,0,.518.518,0,0,1,.156.369.512.512,0,0,1-.156.369l-3.641,3.646a.53.53,0,0,1-.373.153.515.515,0,0,1-.329-.115L40.107,30.4a.523.523,0,0,1-.071-.739Z"
        transform="translate(-24.968 -18.668)" fill="#fff" />
      <path id="Path_14" data-name="Path 14"
        d="M21.539,17.3V40.874h18a.522.522,0,0,1,.524.524v2.227a3.83,3.83,0,0,0,6.538,2.7,3.787,3.787,0,0,0,1.119-2.7V15.047a3.361,3.361,0,0,1,.942-2.333H26.124A4.592,4.592,0,0,0,21.539,17.3ZM43.81,38.847H25.453a.524.524,0,1,1,0-1.048H43.81a.524.524,0,0,1,0,1.048Zm0-1.89H25.453a.524.524,0,1,1,0-1.048H43.81a.524.524,0,0,1,0,1.048Zm.524-2.415v0a.526.526,0,0,1-.524.526H25.453a.524.524,0,1,1,0-1.048H43.81a.525.525,0,0,1,.524.522Zm-16.11-15.2a.524.524,0,0,1,.513-.488,7.851,7.851,0,0,0,5.533-2.032h0a.522.522,0,0,1,.724,0,7.84,7.84,0,0,0,5.533,2.032h0a.525.525,0,0,1,.513.488c.418,5.533-1.592,9.518-6.141,12.185a.568.568,0,0,1-.535,0c-4.545-2.667-6.556-6.654-6.137-12.185Z"
        transform="translate(-16.164 -12.714)" fill="#fff" />
    </g>
  </g>
</svg>
