<svg id="Group_3627" data-name="Group 3627" xmlns="http://www.w3.org/2000/svg" width="36.44" height="36.765" viewBox="0 0 36.44 36.765">
  <path id="Path_20" data-name="Path 20" d="M40.449,48.068l-7.6-3.892a1.682,1.682,0,0,0-.768-.2,1.286,1.286,0,0,0-1.277,1.4v7.646a1.287,1.287,0,0,0,1.277,1.4,1.677,1.677,0,0,0,.768-.2l7.6-3.892a1.2,1.2,0,0,0,0-2.271Zm-.558,1.183-7.6,3.892a.465.465,0,0,1-.21.064l-.016,0a.327.327,0,0,1-.037-.183l0-7.646c0-.116.027-.172.053-.18a.489.489,0,0,1,.21.064l7.6,3.892a.824.824,0,0,1,.08.046.622.622,0,0,1-.078.048Z" transform="translate(-20.419 -28.053)" fill="#fff"/>
  <path id="Path_21" data-name="Path 21" d="M41.177,4.953h-30a.612.612,0,0,0-.612.612v4.928h-4.6a.612.612,0,0,0-.612.612v30a.612.612,0,0,0,.612.612h30a.612.612,0,0,0,.612-.612v-4.93h4.6a.612.612,0,0,0,.612-.612v-30a.615.615,0,0,0-.614-.612ZM35.35,40.492H6.575V11.716H35.351V40.492Zm5.215-5.541H36.574V11.1a.612.612,0,0,0-.612-.612H11.791V6.178H40.567V34.952Z" transform="translate(-5.351 -4.953)" fill="#fff"/>
  <path id="Path_22" data-name="Path 22" d="M25.444,29.509h1.632a.612.612,0,0,0,0-1.224H25.444a.612.612,0,1,0,0,1.224Z" transform="translate(-16.883 -18.764)" fill="#fff"/>
  <path id="Path_23" data-name="Path 23" d="M47.444,29.509h1.632a.612.612,0,0,0,0-1.224H47.444a.612.612,0,0,0,0,1.224Z" transform="translate(-29.905 -18.764)" fill="#fff"/>
  <path id="Path_24" data-name="Path 24" d="M36.444,29.509h1.632a.612.612,0,0,0,0-1.224H36.444a.612.612,0,0,0,0,1.224Z" transform="translate(-23.394 -18.764)" fill="#fff"/>
  <path id="Path_25" data-name="Path 25" d="M16.076,28.285H14.444a.612.612,0,1,0,0,1.224h1.632a.612.612,0,0,0,0-1.224Z" transform="translate(-10.371 -18.764)" fill="#fff"/>
  <path id="Path_26" data-name="Path 26" d="M70.079,28.285h-.634a.612.612,0,0,0,0,1.224h.634a.612.612,0,1,0,0-1.224Z" transform="translate(-42.928 -18.764)" fill="#fff"/>
  <path id="Path_27" data-name="Path 27" d="M60.076,28.285H58.444a.612.612,0,0,0,0,1.224h1.632a.612.612,0,0,0,0-1.224Z" transform="translate(-36.417 -18.764)" fill="#fff"/>
  <path id="Path_28" data-name="Path 28" d="M16.076,82.293H14.444a.612.612,0,1,0,0,1.224h1.632a.612.612,0,0,0,0-1.224Z" transform="translate(-10.371 -50.734)" fill="#fff"/>
  <path id="Path_29" data-name="Path 29" d="M70.079,82.293h-.634a.612.612,0,0,0,0,1.224h.634a.612.612,0,0,0,0-1.224Z" transform="translate(-42.928 -50.734)" fill="#fff"/>
  <path id="Path_30" data-name="Path 30" d="M60.076,82.293H58.444a.612.612,0,1,0,0,1.224h1.632a.612.612,0,0,0,0-1.224Z" transform="translate(-36.417 -50.734)" fill="#fff"/>
  <path id="Path_31" data-name="Path 31" d="M38.076,82.293H36.444a.612.612,0,0,0,0,1.224h1.632a.612.612,0,1,0,0-1.224Z" transform="translate(-23.394 -50.734)" fill="#fff"/>
  <path id="Path_32" data-name="Path 32" d="M49.076,82.293H47.444a.612.612,0,1,0,0,1.224h1.632a.612.612,0,0,0,0-1.224Z" transform="translate(-29.905 -50.734)" fill="#fff"/>
  <path id="Path_33" data-name="Path 33" d="M27.076,82.293H25.444a.612.612,0,1,0,0,1.224h1.632a.612.612,0,0,0,0-1.224Z" transform="translate(-16.883 -50.734)" fill="#fff"/>
</svg>
