<svg id="format_list_bulleted_24dp_E8EAED" xmlns="http://www.w3.org/2000/svg" width="41" height="41" viewBox="0 0 41 41">
  <path id="Path_34" data-name="Path 34" d="M0,0H41V41H0Z" fill="none"/>
  <path id="Path_35" data-name="Path 35" d="M5.063,14.75a2.563,2.563,0,1,0,2.563,2.563A2.559,2.559,0,0,0,5.063,14.75Zm0-10.25A2.563,2.563,0,1,0,7.625,7.063,2.559,2.559,0,0,0,5.063,4.5Zm0,20.5a2.563,2.563,0,1,0,2.563,2.563A2.57,2.57,0,0,0,5.063,25Zm5.125,4.271H34.1V25.854H10.188Zm0-10.25H34.1V15.6H10.188Zm0-13.667V8.771H34.1V5.354Z" transform="translate(1.771 3.188)" fill="#e8eaed"/>
</svg>
